<?xml version="1.0" standalone="no"?>
<!DOCTYPE svg PUBLIC "-//W3C//DTD SVG 20010904//EN"
 "http://www.w3.org/TR/2001/REC-SVG-20010904/DTD/svg10.dtd">
<svg version="1.0" xmlns="http://www.w3.org/2000/svg"
 width="211.000000pt" height="211.000000pt" viewBox="0 0 211.000000 211.000000"
 preserveAspectRatio="xMidYMid meet">
<metadata>
Created by potrace 1.11, written by Peter Selinger 2001-2013
</metadata>
<g transform="translate(0.000000,211.000000) scale(0.100000,-0.100000)"
fill="#000000" stroke="none">
<path d="M500 2100 c-278 -3 -500 -6 -495 -8 6 -1 11 -11 11 -21 0 -11 -4 -17
-8 -15 -4 3 -8 -456 -8 -1020 l0 -1026 1055 0 1055 0 0 1045 0 1045 -503 1
c-276 1 -524 2 -552 3 -27 0 -277 -1 -555 -4z m-413 -25 c0 -8 -4 -12 -9 -9
-5 3 -6 10 -3 15 9 13 12 11 12 -6z m-37 1 c0 -3 -4 -8 -10 -11 -5 -3 -10 -1
-10 4 0 6 5 11 10 11 6 0 10 -2 10 -4z m-15 -46 c3 -6 -1 -7 -9 -4 -18 7 -21
14 -7 14 6 0 13 -4 16 -10z m168 -1955 c-3 -9 -8 -14 -10 -11 -3 3 -2 9 2 15
9 16 15 13 8 -4z m64 -14 c0 -11 -5 -17 -11 -14 -5 4 -7 -2 -3 -13 7 -18 7
-18 -8 0 -13 17 -19 15 -17 -5 1 -3 -5 -6 -13 -6 -7 0 -11 6 -8 14 5 12 17 17
36 14 4 -1 10 6 13 14 8 21 13 19 11 -4z m-137 -15 c0 -2 -8 -10 -17 -17 -16
-13 -17 -12 -4 4 13 16 21 21 21 13z m57 -9 c0 -15 -32 -16 -44 -2 -5 4 -3 6
2 2 6 -3 17 -2 25 4 8 5 15 9 16 9 0 0 1 -6 1 -13z m113 -1 c0 -2 -7 -7 -16
-10 -8 -3 -12 -2 -9 4 6 10 25 14 25 6z"/>
</g>
</svg>
